<svg xmlns="http://www.w3.org/2000/svg" id="Layer_1" version="1.1" viewBox="23.42 18.1 121 168.77">
  <!-- Generator: Adobe Illustrator 29.3.0, SVG Export Plug-In . SVG Version: 2.1.0 Build 146)  -->
  <defs>
    <style>
      .st0 {
        fill: #e50913;
      }

      .st1 {
        fill: red;
      }
    </style>
  </defs>
  <path class="st1" d="M96,173.9c9.3-4.6,19.5-6.8,29.5-8.9,3.4-.7,13.1-3.2,15.9-2.9,3.4.3,4.1,4.7,1.2,6.2-14.2,3.9-30.2,5.1-43.5,11.5-6.3,3.1-10.2,7.7-18,7-6.2-.6-10.1-4.6-15.4-7.2-6.4-3.2-13.5-5.1-20.4-6.8-6-1.5-13.1-2.4-18.9-4.1-2.3-.7-3.8-2.8-2.5-5.1,1-1.6,2.3-1.7,4.1-1.6,4,.4,9.9,2,13.9,2.9,6.5,1.4,13,2.9,19.3,5.2,3.1,1.1,6.1,2.5,9.2,3.9.4-.3-5-4.2-5.5-4.5-10-6.7-22.2-8.1-33.6-11.2l-1.9-42.4c.2-.3.6-.2.9-.2,1.2,0,3.5.9,4.7,1.2,15.2,4.1,30.3,11.3,39.6,24.4,3.8,5.3,6.2,11.4,8.9,17.4,5-11.2,10.8-21.5,20.7-29,9.8-7.5,21.8-11.2,33.7-14.1l.9.3-2.7,42.5c-.2.3-.5.4-.8.5-4.4,1.4-10.4,2-15.1,3.1-9,2.2-17.9,5.2-24.6,11.9h0ZM138.9,116.1c-18,3.7-34.6,10.7-45.4,26.1-4.1,5.8-6.1,11.6-9.3,17.6-.1.2-.2.5-.5.5-2.2-5.8-4.7-12-8.2-17.2-10.1-15.4-27.8-22.8-45.1-26.9l1.8,41.6c12.6,2.9,26.1,4.8,36.5,13.2,1.9,1.5,4.5,4,6,5.8.2.2.5.4.4.8-9.1-6.5-20.4-9.2-31.1-11.7-5.5-1.3-11.2-2.4-16.8-3.4-3.5,0-4.2,4.4-.8,5.4,5.2,1.6,11.8,2.4,17.3,3.7,11.9,2.9,18.5,5.1,29.1,11.2,12.3,7.1,16.1,1,26.4-3.9,13.2-6.4,29.3-7.6,43.4-11.4,1.2-.8,1.6-2.4.9-3.7-.8-1.5-2.3-1.4-3.9-1.3-5.2.6-12.4,2.4-17.7,3.6-8.6,1.9-19.5,4.4-27,8.9-1,.6-1.9,1.5-3,1.9,3.2-3.6,6.6-6.7,10.7-9.2,10.2-6.1,22.2-7.4,33.6-9.9l2.7-41.8h0Z"/>
  <path d="M104.6,38.7c0,11.4-9.2,20.6-20.6,20.6s-20.6-9.2-20.6-20.6,9.2-20.6,20.6-20.6,20.6,9.2,20.6,20.6ZM104.1,38.5c0-11-9-20-20-20s-20,9-20,20,9,20,20,20,20-9,20-20Z"/>
  <path d="M63,65.7h7.7l.3.5-18.8,22.3c-.2.2-.5.6-.4.9,0,.2,1.7,2.2,2,2.6,5.4,6.6,11.3,12.9,16.4,19.8l-.3.5h-7.9c-4.8-5.4-9.5-11-14.1-16.5-1.7-2-3.3-4-4.8-6.1l20-24h0ZM70.4,66.1h-7.3l-19.3,23.3,18.7,22.2h7.1l-18.6-22.5,19.5-23.1h0Z"/>
  <path d="M98.6,65.7h8l18.7,23.5-19.1,23.2h-7.5l-.3-.5,18.3-22.6c-4.9-6.3-10.1-12.3-14.9-18.5-.7-.9-2.5-3-2.9-3.8-.2-.4-.3-.7-.2-1.2h0ZM106.4,66.1h-6.9l18.1,22.9-18.6,22.7h6.9c6.2-7.3,12.2-14.8,18.4-22,.1-.2.5-.2.6-.4l-18.5-23.1Z"/>
  <path d="M93.4,65.7l-12.2,46.7h-6.6c-.2,0-.3-.5-.3-.7,0-.8.7-2.6.9-3.5,2.9-12,6.2-24,9.5-35.8.6-2.2,1.1-4.5,2-6.6h6.7ZM92.9,66.1h-5.9l-12,45.6h6.1l11.8-45.6h0Z"/>
  <path class="st0" d="M138.9,116.1l-2.7,41.8c-11.4,2.6-23.4,3.8-33.6,9.9-4.1,2.5-7.5,5.6-10.7,9.2,1.1-.4,2-1.3,3-1.9,7.5-4.5,18.5-7,27-8.9,5.3-1.2,12.5-3,17.7-3.6,1.5-.2,3-.2,3.9,1.3.7,1.3.3,2.9-.9,3.7-14.1,3.8-30.1,5-43.4,11.4-10.3,5-14.1,11.1-26.4,3.9-10.6-6.1-17.2-8.4-29.1-11.2-5.5-1.3-12.1-2.1-17.3-3.7-3.4-1-2.7-5.4.8-5.4,5.6,1,11.2,2.1,16.8,3.4,10.7,2.5,22,5.2,31.1,11.7,0-.4-.2-.5-.4-.8-1.5-1.8-4.2-4.3-6-5.8-10.3-8.3-23.9-10.3-36.5-13.2l-1.8-41.6c17.3,4.1,35,11.5,45.1,26.9,3.4,5.2,6,11.4,8.2,17.2.3,0,.4-.3.5-.5,3.2-6,5.3-11.8,9.3-17.6,10.8-15.5,27.4-22.4,45.4-26.1h0ZM132.6,123.3c-10,3.1-20,7-27.8,14.1-10.3,9.5-15.3,23.7-20.8,36.3-.6,0-.3,0-.5-.3-4.5-10.1-7.8-21.2-14.7-30-8-10.3-20.5-15.9-32.6-19.8l1.6,29.7c.1.3.4.3.7.4,4.2,1.4,9.4,2,13.8,3.3,5.2,1.5,10.7,3.5,15.3,6.4,6.8,4.4,12.1,10.5,15.9,17.6,5.3-9.6,13.2-17.1,23.3-21.4,7.7-3.3,16.1-4.5,24.2-6.2l1.6-30h0Z"/>
  <path d="M104.1,38.5c0,11-9,20-20,20s-20-9-20-20,9-20,20-20,20,9,20,20ZM98.6,38.5c0-8-6.5-14.4-14.4-14.4s-14.4,6.4-14.4,14.4,6.5,14.4,14.4,14.4,14.4-6.5,14.4-14.4Z"/>
  <polygon points="70.4 66.1 50.9 89.2 69.5 111.7 62.4 111.7 43.7 89.4 63 66.1 70.4 66.1"/>
  <path d="M106.4,66.1l18.5,23.1c0,.2-.4.3-.6.4-6.2,7.3-12.2,14.7-18.4,22.1h-6.9l18.6-22.7-18.1-22.9h6.9,0Z"/>
  <polygon points="92.9 66.1 81.1 111.7 75 111.7 87 66.1 92.9 66.1"/>
</svg>